<svg xmlns="http://www.w3.org/2000/svg" width="16" height="16" viewBox="0 0 16 16" fill="none">
<path fill-rule="evenodd" clip-rule="evenodd" d="M2.00004 6.66669C2.36823 6.66669 2.66671 6.96516 2.66671 7.33335V9.33335H13.3334V7.33335C13.3334 6.96516 13.6319 6.66669 14 6.66669C14.3682 6.66669 14.6667 6.96516 14.6667 7.33335V9.33335C14.6667 9.68698 14.5262 10.0261 14.2762 10.2762C14.0261 10.5262 13.687 10.6667 13.3334 10.6667H2.66671C2.31309 10.6667 1.97395 10.5262 1.7239 10.2762C1.47385 10.0261 1.33337 9.68698 1.33337 9.33335V7.33335C1.33337 6.96516 1.63185 6.66669 2.00004 6.66669Z" fill="#BB9F3A"/>
<path fill-rule="evenodd" clip-rule="evenodd" d="M1.7239 9.72384C1.97395 9.47379 2.31309 9.33331 2.66671 9.33331H13.3334C13.687 9.33331 14.0261 9.47379 14.2762 9.72384C14.5262 9.97389 14.6667 10.313 14.6667 10.6666V12C14.6667 12.3536 14.5262 12.6927 14.2762 12.9428C14.0261 13.1928 13.687 13.3333 13.3334 13.3333H10.78C10.4119 13.3333 10.1134 13.0348 10.1134 12.6666C10.1134 12.2985 10.4119 12 10.78 12H13.3334V10.6666L2.66671 10.6666V12L8.00004 12C8.36823 12 8.66671 12.2985 8.66671 12.6666C8.66671 13.0348 8.36823 13.3333 8.00004 13.3333H2.66671C2.31309 13.3333 1.97395 13.1928 1.7239 12.9428C1.47385 12.6927 1.33337 12.3536 1.33337 12V10.6666C1.33337 10.313 1.47385 9.97389 1.7239 9.72384Z" fill="#BB9F3A"/>
<path fill-rule="evenodd" clip-rule="evenodd" d="M7.99996 3.69137C7.8514 3.69137 7.7071 3.74098 7.58996 3.83235L3.94383 6.66666H12.0561L8.40996 3.83235C8.29282 3.74098 8.14852 3.69137 7.99996 3.69137ZM6.77046 2.78058C7.1218 2.50675 7.5545 2.35803 7.99996 2.35803C8.44542 2.35803 8.87812 2.50675 9.22945 2.78058C9.22928 2.78045 9.22962 2.78072 9.22945 2.78058L14.4091 6.80699C14.634 6.9818 14.723 7.28017 14.6306 7.5496C14.5382 7.81903 14.2848 8 14 8H1.99996C1.71512 8 1.46175 7.81903 1.36935 7.5496C1.27694 7.28017 1.36592 6.9818 1.59081 6.80699L6.77046 2.78058C6.77063 2.78045 6.7703 2.78072 6.77046 2.78058Z" fill="#BB9F3A"/>
<path fill-rule="evenodd" clip-rule="evenodd" d="M4.03755 9.7795C4.13121 9.51224 4.3835 9.33331 4.6667 9.33331H13C13.2587 9.33331 13.494 9.48295 13.6038 9.71721C13.7135 9.95147 13.6778 10.228 13.5122 10.4268L11.0095 13.43C10.6729 13.8288 10.1938 14.0802 9.67444 14.1306C9.1553 14.1811 8.63702 14.0267 8.23009 13.7004C8.22989 13.7003 8.2297 13.7001 8.2295 13.7L4.25056 10.5208C4.02931 10.344 3.94389 10.0468 4.03755 9.7795ZM6.56909 10.6666L9.06391 12.66C9.19958 12.7688 9.37242 12.8204 9.54555 12.8035C9.7181 12.7868 9.87732 12.7035 9.98945 12.5713L11.5767 10.6666H6.56909Z" fill="#BB9F3A"/>
</svg>