<svg xmlns="http://www.w3.org/2000/svg" width="16" height="16" viewBox="0 0 16 16" fill="none">
  <path fill-rule="evenodd" clip-rule="evenodd" d="M8.33333 4.66665C7.78105 4.66665 7.33333 5.11436 7.33333 5.66665C7.33333 6.21893 7.78105 6.66665 8.33333 6.66665C8.88562 6.66665 9.33333 6.21893 9.33333 5.66665C9.33333 5.11436 8.88562 4.66665 8.33333 4.66665ZM6 5.66665C6 4.37798 7.04467 3.33331 8.33333 3.33331C9.622 3.33331 10.6667 4.37798 10.6667 5.66665C10.6667 6.95531 9.622 7.99998 8.33333 7.99998C7.04467 7.99998 6 6.95531 6 5.66665Z" fill="#DB5BBF"/>
  <path fill-rule="evenodd" clip-rule="evenodd" d="M8.3333 0.666688C7.26206 0.666132 6.21896 1.00964 5.35766 1.64661L8.3333 0.666688ZM8.3329 2.00002C7.54723 1.99955 6.78217 2.25146 6.15048 2.71863C5.51878 3.1858 5.05385 3.84353 4.82419 4.59489C4.8215 4.60367 4.81864 4.6124 4.81559 4.62106C4.64646 5.10232 4.52955 5.49641 4.42489 5.8492C4.41994 5.86589 4.41502 5.88249 4.41012 5.89899C4.30357 6.25796 4.20199 6.59734 4.06684 6.92104C3.77957 7.60907 3.36182 8.17753 2.51488 8.94683C2.50654 8.95441 2.49801 8.96177 2.4893 8.96891C2.27675 9.14316 2.12325 9.37885 2.0498 9.6437C1.97635 9.90855 1.98654 10.1896 2.07898 10.4485C2.17142 10.7073 2.34159 10.9313 2.56621 11.0897C2.79082 11.2481 3.0589 11.3332 3.33375 11.3334C5.825 11.3332 8.61069 10.2011 10.5065 8.62121C10.5153 8.61392 10.5242 8.60685 10.5333 8.60002C11.149 8.13828 11.6037 7.49453 11.8332 6.75997C12.0626 6.0254 12.0552 5.23726 11.8118 4.50719C11.5685 3.77711 11.1015 3.14211 10.4772 2.69213C9.85293 2.24216 9.10247 2.00002 8.3329 2.00002ZM8.3333 0.666688C9.38258 0.666771 10.4056 0.996952 11.2569 1.61048C12.1082 2.22408 12.7449 3.08999 13.0767 4.08555C13.4086 5.08111 13.4188 6.15585 13.1059 7.15753C12.7947 8.15366 12.1797 9.02732 11.3472 9.65621C9.24348 11.404 6.16948 12.6667 3.3333 12.6667C2.7836 12.6663 2.24701 12.4961 1.79778 12.1793C1.34855 11.8625 1.00821 11.4146 0.823324 10.8969C0.63844 10.3792 0.618055 9.81708 0.764957 9.28738C0.910224 8.76357 1.21206 8.29681 1.62982 7.94948C2.37425 7.27163 2.648 6.85867 2.83644 6.40733C2.93962 6.1602 3.02221 5.88917 3.13191 5.51959C3.13714 5.50194 3.14243 5.48411 3.14777 5.4661C3.25145 5.11659 3.37531 4.699 3.55324 4.19162C3.86785 3.17267 4.50005 2.28086 5.35766 1.64661" fill="#DB5BBF"/>
  <path d="M3.41106 13.1151C3.31862 12.8563 3.30842 12.5752 3.38187 12.3103L1.33337 11.6666L2.1554 13.5635C2.34029 14.0812 2.68063 14.5291 3.12986 14.8459C3.57908 15.1627 4.11568 15.3329 4.66538 15.3333C7.50156 15.3333 10.5756 14.0707 12.6793 12.3228C13.5118 11.6939 14.1268 10.8203 14.438 9.82415C14.7509 8.82247 14.7407 7.74773 14.4088 6.75217C14.0769 5.75661 12.3334 2.66663 12.3334 2.66663L13 6.99997C13.2434 7.73005 13.3947 8.69203 13.1653 9.42659C12.9358 10.1612 12.481 10.8049 11.8654 11.2666C11.8563 11.2735 11.8473 11.2805 11.8386 11.2878C9.94276 12.8677 7.15708 13.9998 4.66583 14C4.39098 13.9998 4.1229 13.9147 3.89829 13.7563C3.67367 13.5979 3.5035 13.3739 3.41106 13.1151Z" fill="#DB5BBF"/>
</svg>