<svg xmlns="http://www.w3.org/2000/svg" width="16" height="16" viewBox="0 0 16 16" fill="none">
  <g clip-path="url(#clip0_803_102)">
    <path d="M4.5408 9.06059L5.28973 9.80587C5.55072 10.0656 5.97283 10.0646 6.23254 9.80357C6.49225 9.54258 6.49122 9.12047 6.23023 8.86076L5.21119 7.84669L4.5408 9.06059Z" fill="#8CAD51"/>
    <path fill-rule="evenodd" clip-rule="evenodd" d="M7.88286 4.43616C7.40129 4.43578 6.92435 4.53026 6.47928 4.7142C6.03422 4.89814 5.62937 5.16832 5.28858 5.50858C4.74101 6.05614 4.19971 6.8943 3.70536 7.79148C3.20404 8.7013 2.72391 9.72255 2.30825 10.6739C1.89194 11.6267 1.53668 12.5178 1.28561 13.1702C1.15998 13.4967 1.06021 13.764 0.991687 13.9502C0.957422 14.0433 0.930956 14.1161 0.912963 14.1659L0.892407 14.223L0.88705 14.238L0.88512 14.2435L1.51332 14.4666L1.73663 15.0948L1.74173 15.093L1.75674 15.0876L1.81393 15.0671C1.86379 15.0491 1.93668 15.0226 2.02985 14.9884C2.21615 14.9199 2.48369 14.8201 2.8104 14.6946C3.46335 14.4436 4.35503 14.0886 5.30824 13.6727C6.25997 13.2575 7.28142 12.778 8.19091 12.2776C9.08742 11.7844 9.92487 11.2444 10.471 10.6984C10.5244 10.6452 10.576 10.5903 10.6258 10.534C10.651 10.5152 10.6752 10.4943 10.6981 10.4714C10.7558 10.4137 10.8007 10.348 10.8328 10.2779C11.0075 10.0406 11.1534 9.78268 11.2669 9.50934C11.4515 9.06456 11.5468 8.58777 11.5471 8.1062C11.5475 7.62462 11.453 7.14768 11.2691 6.70262C11.0852 6.25755 10.8154 5.85308 10.4751 5.51228C10.1348 5.17149 9.73078 4.90105 9.28601 4.71641C8.84123 4.53176 8.36444 4.43654 7.88286 4.43616ZM4.77506 12.4506C3.99349 12.7916 3.2526 13.0914 2.65594 13.3245C2.88908 12.7285 3.18892 11.9885 3.53005 11.2077C3.84112 10.4958 4.1844 9.75478 4.5408 9.06059L5.21119 7.84669C5.57193 7.24699 5.91872 6.76416 6.23113 6.45164C6.44799 6.23515 6.70537 6.06348 6.98856 5.94644C7.27181 5.82938 7.57533 5.76925 7.88182 5.76949C8.1883 5.76973 8.49173 5.83034 8.77479 5.94784C9.05785 6.06535 9.315 6.23746 9.53154 6.45435C9.74809 6.67123 9.91979 6.92865 10.0369 7.21189C10.1539 7.49514 10.214 7.79866 10.2138 8.10515C10.2136 8.37757 10.1657 8.64759 10.0725 8.90303L9.05805 7.88858C8.7977 7.62823 8.3756 7.62823 8.11525 7.88858C7.8549 8.14893 7.8549 8.57104 8.11525 8.83139L9.27199 9.98813C8.85526 10.3363 8.25921 10.7183 7.54822 11.1094C6.68771 11.5828 5.70666 12.0442 4.77506 12.4506Z" fill="#8CAD51"/>
    <path d="M1.73663 15.0948C1.73663 15.0948 1.73613 15.095 1.51332 14.4666C0.885056 14.2436 0.88512 14.2435 0.88512 14.2435C0.799105 14.4858 0.860048 14.7561 1.04184 14.938C1.22362 15.1198 1.49429 15.1807 1.73663 15.0948Z" fill="#8CAD51"/>
    <path fill-rule="evenodd" clip-rule="evenodd" d="M10.3579 4.79904C10.8207 4.45371 11.5553 4 12.3333 4C13.2681 4 13.9976 4.43054 14.4677 4.81988C14.7057 5.01702 14.8894 5.21325 15.0145 5.36113C15.0774 5.43548 15.1264 5.49872 15.161 5.54528C15.1783 5.5686 15.192 5.58783 15.2022 5.60229L15.2147 5.62036L15.2189 5.62658L15.2205 5.62896L15.2212 5.62996C15.2213 5.63018 15.2218 5.63084 14.6666 6C15.2218 6.36916 15.2216 6.36937 15.2215 6.36958L15.2205 6.37104L15.2189 6.37342L15.2147 6.37964L15.2022 6.39771C15.192 6.41217 15.1783 6.4314 15.161 6.45472C15.1264 6.50128 15.0774 6.56452 15.0145 6.63887C14.8894 6.78675 14.7057 6.98299 14.4677 7.18012C13.9976 7.56946 13.2681 8 12.3333 8C11.3985 8 10.669 7.56946 10.1989 7.18012C9.96087 6.98299 9.77719 6.78675 9.6521 6.63887C9.58922 6.56452 9.54021 6.50128 9.50563 6.45472C9.48832 6.4314 9.47456 6.41217 9.46442 6.39771L9.45191 6.37964L9.44769 6.37342L9.44609 6.37104L9.44542 6.37004C9.44528 6.36982 9.44484 6.36916 9.99996 6C9.51178 5.54599 9.51188 5.54588 9.51199 5.54577L9.51279 5.54491L9.51427 5.54333L9.51858 5.53874L9.53259 5.52401C9.54427 5.5118 9.56061 5.49492 9.58127 5.47402C9.62255 5.43227 9.68132 5.37423 9.75483 5.30531C9.90109 5.16819 10.1096 4.98436 10.3579 4.79904ZM9.99996 6L9.51199 5.54577C9.30194 5.77163 9.27404 6.11232 9.44484 6.36916L9.99996 6ZM10.9281 6.04707C10.966 6.08208 11.0064 6.11768 11.0493 6.15321C11.3842 6.43054 11.8214 6.66667 12.3333 6.66667C12.8452 6.66667 13.2824 6.43054 13.6172 6.15321C13.6795 6.10162 13.7367 6.0499 13.7883 6C13.7367 5.9501 13.6795 5.89838 13.6172 5.84679C13.2824 5.56946 12.8452 5.33333 12.3333 5.33333C12.018 5.33333 11.5859 5.54629 11.1554 5.86762C11.0744 5.92805 10.9981 5.98873 10.9281 6.04707ZM14.6666 6L15.2215 6.36958C15.3702 6.14594 15.3705 5.85448 15.2218 5.63084L14.6666 6Z" fill="#8CAD51"/>
    <path fill-rule="evenodd" clip-rule="evenodd" d="M10.3692 0.778227L10 1.33335L9.63084 0.778227C9.85448 0.629507 10.1455 0.629507 10.3692 0.778227ZM10 6.00002C9.63084 6.55515 9.63063 6.55501 9.63042 6.55487L9.62896 6.55389L9.62658 6.55229L9.62036 6.54808L9.60229 6.53557C9.58783 6.52542 9.5686 6.51166 9.54528 6.49435C9.49872 6.45978 9.43548 6.41076 9.36113 6.34788C9.21325 6.22279 9.01702 6.03911 8.81988 5.80107C8.43054 5.33095 8 4.60148 8 3.66669C8 2.73189 8.43054 2.00243 8.81988 1.5323C9.01702 1.29426 9.21325 1.11058 9.36113 0.985495C9.43548 0.922613 9.49872 0.873597 9.54528 0.839024C9.5686 0.821713 9.58783 0.80795 9.60229 0.797809L9.62036 0.785298L9.62658 0.78108L9.62896 0.779483L9.62996 0.778812C9.63018 0.778669 9.63084 0.778227 10 1.33335C10.3692 0.778227 10.3689 0.778084 10.3692 0.778227L10.37 0.778812L10.371 0.779483L10.3734 0.78108L10.3796 0.785298L10.3977 0.797809C10.4122 0.80795 10.4314 0.821713 10.4547 0.839024C10.5013 0.873597 10.5645 0.922613 10.6389 0.985495C10.7868 1.11058 10.983 1.29426 11.1801 1.5323C11.5695 2.00243 12 2.73189 12 3.66669C12 4.45075 11.5472 5.18486 11.2002 5.64803C11.0145 5.89593 10.8303 6.10347 10.6929 6.24892C10.6238 6.32203 10.5656 6.38044 10.5237 6.42146C10.5028 6.442 10.4858 6.45824 10.4735 6.46987L10.4587 6.48383L10.4541 6.48814L10.4525 6.48962L10.4519 6.49019C10.4517 6.4903 10.4514 6.49064 10 6.00002ZM10 6.00002L9.63042 6.55487C9.88614 6.72492 10.2254 6.69857 10.4514 6.49064L10 6.00002ZM9.95461 5.0737C10.0126 5.00438 10.073 4.92891 10.1331 4.84867C10.4528 4.42185 10.6667 3.98929 10.6667 3.66669C10.6667 3.15482 10.4305 2.71761 10.1532 2.38274C10.1016 2.32044 10.0499 2.26332 10 2.21169C9.9501 2.26332 9.89838 2.32044 9.84679 2.38274C9.56946 2.71761 9.33333 3.15482 9.33333 3.66669C9.33333 4.17856 9.56946 4.61576 9.84679 4.95063C9.88289 4.99423 9.91905 5.03528 9.95461 5.0737Z" fill="#8CAD51"/>
  </g>
  <defs>
    <clipPath id="clip0_803_102">
      <rect width="16" height="16" fill="white"/>
    </clipPath>
  </defs>
</svg>